<?xml version="1.0" encoding="utf-8"?>
<!-- Generator: Adobe Illustrator 22.0.0, SVG Export Plug-In . SVG Version: 6.00 Build 0)  -->
<svg version="1.1" id="Layer_1" xmlns:ev="http://www.w3.org/2001/xml-events"
	 xmlns="http://www.w3.org/2000/svg" xmlns:xlink="http://www.w3.org/1999/xlink" x="0px" y="0px" viewBox="0 0 2267 962"
	 style="enable-background:new 0 0 2267 962;" xml:space="preserve">
<style type="text/css">
	.st0{display:none;}
	.st1{display:inline;}
	.st2{fill:#9999A0;fill-opacity:0.75;}
	.st3{fill:none;stroke:#000000;stroke-width:1.5;stroke-linecap:square;stroke-miterlimit:10;}
	.st4{clip-path:url(#SVGID_2_);}
	.st5{fill:#FFFFFF;}
	.st6{fill:none;stroke:#000000;stroke-linecap:square;stroke-miterlimit:10;}
</style>
<title>D:\Users\matte\Desktop\Poli - Extensao\6 Semestre\Embarcados IoT\SmartHome.sh3d</title>
<desc>
	Creator: FreeHEP Graphics2D Driver Producer: com.eteks.sweethome3d.swing.PlanComponent$SVGSupport$1 Revision: 12753  Source: matteus Date: Thursday, November 10, 2022 7:05:38 PM BRST
	</desc>
<g>
	<g transform="matrix(100, 0, 0, 100, 61.25, 73.1907787322998)" class="st0">
		<g class="st1">
			<path d="M0.5,0c0,0.3-0.2,0.5-0.5,0.5S-0.5,0.3-0.5,0S-0.3-0.5,0-0.5S0.5-0.3,0.5,0z M0.5,0c0-0.3-0.2-0.5-0.5-0.5
				S-0.5-0.3-0.5,0S-0.3,0.5,0,0.5S0.5,0.3,0.5,0z M-0.6,0h0.1h0v0h0L-0.6,0L-0.6,0L-0.6,0L-0.6,0z M0.6,0H0.5h0v0h0L0.6,0L0.6,0
				L0.6,0L0.6,0z M0,0.6V0.5v0h0v0L0,0.6L0,0.6L0,0.6L0,0.6z M0,0L0,0C0,0,0,0,0,0C0,0,0,0,0,0L0,0C0,0,0,0,0,0C0,0,0,0,0,0z M0-0.5
				l0.2,0.9l0,0l0,0L0,0.3l0,0l0,0l-0.2,0.1l0,0l0,0L0-0.5L0-0.5L0-0.5z M0-0.5l-0.2,0.9l0,0l0,0L0,0.3l0,0l0,0l0.2,0.1l0,0l0,0
				L0-0.5L0-0.5L0-0.5z M-0.1-0.6v-0.1h0l0,0l0.1,0.1l0,0v0v-0.1v0h0l0,0v0.1h0l0,0l-0.1-0.1l0,0v0L-0.1-0.6L-0.1-0.6L-0.1-0.6
				L-0.1-0.6z"/>
		</g>
	</g>
	<g transform="matrix(1, 0, 0, 1, 161.25, 23.190778732299805)">
		<g>
			<path class="st2" d="M204.3,3.8v370h600V3.8H204.3z"/>
		</g>
	</g>
	<g transform="matrix(1, 0, 0, 1, 161.25, 23.190778732299805)">
		<g>
			<path class="st3" d="M204.3,3.8v370h600V3.8H204.3z"/>
		</g>
	</g>
	<g transform="matrix(1, 0, 0, 1, 161.25, 23.190778732299805)">
		<g>
			<path class="st2" d="M807.1,3.8v370h140V3.8H804.3H807.1z"/>
		</g>
	</g>
	<g transform="matrix(1, 0, 0, 1, 161.25, 23.190778732299805)">
		<g>
			<path class="st3" d="M807.1,3.8v370h140V3.8H804.3H807.1z"/>
		</g>
	</g>
	<g transform="matrix(1, 0, 0, 1, 161.25, 23.190778732299805)">
		<g>
			<path class="st2" d="M204.3,846.3h319v-299h-319v301V846.3z"/>
		</g>
	</g>
	<g transform="matrix(1, 0, 0, 1, 161.25, 23.190778732299805)">
		<g>
			<path class="st3" d="M204.3,846.3h319v-299h-319v301V846.3z"/>
		</g>
	</g>
	<g transform="matrix(1, 0, 0, 1, 161.25, 23.190778732299805)">
		<g>
			<path class="st2" d="M523.3,547.3l420.3,0.5v298.5H523.3l2.3-298.5L523.3,547.3z"/>
		</g>
	</g>
	<g transform="matrix(1, 0, 0, 1, 161.25, 23.190778732299805)">
		<g>
			<path class="st3" d="M523.3,547.3l420.3,0.5v298.5H523.3l2.3-298.5L523.3,547.3z"/>
		</g>
	</g>
	<g transform="matrix(1, 0, 0, 1, 161.25, 23.190778732299805)">
		<g>
			<path class="st2" d="M1604.3,547.8h492.5v298.5h-492.5V547.8z"/>
		</g>
	</g>
	<g transform="matrix(1, 0, 0, 1, 161.25, 23.190778732299805)">
		<g>
			<path class="st3" d="M1604.3,547.8h492.5v298.5h-492.5V547.8z"/>
		</g>
	</g>
	<g transform="matrix(1, 0, 0, 1, 161.25, 23.190778732299805)">
		<g>
			<path class="st2" d="M951.1,3.8v842.5h645.7V3.8H951.1z"/>
		</g>
	</g>
	<g transform="matrix(1, 0, 0, 1, 161.25, 23.190778732299805)">
		<g>
			<path class="st3" d="M951.1,3.8v842.5h645.7V3.8H951.1z"/>
		</g>
	</g>
	<g transform="matrix(1, 0, 0, 1, 161.25, 23.190778732299805)">
		<g>
			<path class="st2" d="M1604.3,3.8h492.5v536.5h-492.5V3.8z"/>
		</g>
	</g>
	<g transform="matrix(1, 0, 0, 1, 161.25, 23.190778732299805)">
		<g>
			<path class="st3" d="M1604.3,3.8h492.5v536.5h-492.5V3.8z"/>
		</g>
	</g>
	<g transform="matrix(1, 0, 0, 1, 161.25, 23.190778732299805)">
		<g>
			<defs>
				<path id="SVGID_1_" d="M799.6,3.8v366.5H204.3V3.8H799.6z M943.6,3.8v366.5H807.1V3.8H943.6z M2096.8,3.8v536.5h-492.5V3.8
					H2096.8z M518.2,547.8v298.5H204.3V547.8H518.2z M943.6,547.8v298.5h-418V547.8H943.6z M1596.8,3.8V544v302.3H951.1v-306H204.3
					V377.8h746.8V3.8H1596.8z M1596.8-3.7L1596.8-3.7l-1400,0V850h3.8v3.8h1400V850h3.8V547.8h496.3V543h3.8V-3.7H1596.8z"/>
			</defs>
			<clipPath id="SVGID_2_">
				<use xlink:href="#SVGID_1_"  style="overflow:visible;"/>
			</clipPath>
			<g class="st4">
				<g transform="matrix(1, 0, 0, 1, 196, -3)">
					<image style="overflow:visible;enable-background:new    ;" width="1909" height="859" xlink:href="2215B89A.PNG" >
					</image>
				</g>
			</g>
		</g>
	</g>
	<g transform="matrix(1, 0, 0, 1, 161.25, 23.190778732299805)">
		<g>
			<path class="st3" d="M799.6,3.8v366.5H204.3V3.8H799.6z M943.6,3.8v366.5H807.1V3.8H943.6z M2096.8,3.8v536.5h-492.5V3.8H2096.8z
				 M518.2,547.8v298.5H204.3V547.8H518.2z M943.6,547.8v298.5h-418V547.8H943.6z M1596.8,3.8V544v302.3H951.1v-306H204.3V377.8
				h746.8V3.8H1596.8z M1596.8-3.7L1596.8-3.7l-1400,0V850h3.8v3.8h1400V850h3.8V547.8h496.3V543h3.8V-3.7H1596.8z"/>
		</g>
	</g>
	
		<g transform="matrix(0.00000001347138895741, -1.1296875476837156, 1.5085937976837156, 0.00000001798980069224, 462.1361770629883, 178.5096950531006)">
		<g transform="matrix(1, 0, 0, 1, -64, -64)">
			
				<image style="overflow:visible;enable-background:new    ;" width="128" height="128" xlink:href="2215B89E.PNG"  transform="matrix(1 0 0 1 2.635111e-05 8.298897e-06)">
			</image>
		</g>
	</g>
	
		<g transform="matrix(0.00000000465815642766, -0.39062499999999994, 0.3234375119209289, 0.00000000385695366426, 386.2861785888672, 65.0955638885498)">
		<g transform="matrix(1, 0, 0, 1, -64, -64)">
			
				<image style="overflow:visible;enable-background:new    ;" width="128" height="128" xlink:href="2215B899.PNG"  transform="matrix(1 0 0 1 0 9.518546e-05)">
			</image>
		</g>
	</g>
	
		<g transform="matrix(0.00000000465815642766, -0.39062499999999994, 0.3234375119209289, 0.00000000385695366426, 386.2861633300781, 300.90263175964355)">
		<g transform="matrix(1, 0, 0, 1, -64, -64)">
			
				<image style="overflow:visible;enable-background:new    ;" width="128" height="128" xlink:href="2215B89B.PNG"  transform="matrix(1 0 0 1 0 9.667700e-05)">
			</image>
		</g>
	</g>
	<g transform="matrix(1, 0, 0, 1, 161.25, 23.190778732299805)">
		<g>
			<path class="st5" d="M297.2,370.3v7.5h96v-7.5H297.2z"/>
		</g>
	</g>
	<g transform="matrix(1, 0, 0, 1, 161.25, 23.190778732299805)">
		<g>
			<path class="st6" d="M297.2,370.3v7.5h96v-7.5H297.2z"/>
		</g>
	</g>
	<g transform="matrix(1, 0, 0, 1, 161.25, 23.190778732299805)">
		<g>
			<path class="st6" d="M385.2,370.3c0-44.2-35.8-80-80-80v80H385.2z"/>
		</g>
	</g>
	<g transform="matrix(1, 0, 0, 1, 161.25, 23.190778732299805)">
		<g>
			<path class="st5" d="M393.2,377.8h-96v-7.5h96V377.8z"/>
		</g>
	</g>
	<g transform="matrix(1, 0, 0, 1, 161.25, 23.190778732299805)">
		<g>
			<path class="st6" d="M393.2,377.8h-96v-7.5h96V377.8z"/>
		</g>
	</g>
	<g transform="matrix(1, 0, 0, 1, 161.25, 23.190778732299805)">
		<g>
			<path class="st5" d="M799.6,224.6v96h7.5v-96H799.6z"/>
		</g>
	</g>
	<g transform="matrix(1, 0, 0, 1, 161.25, 23.190778732299805)">
		<g>
			<path class="st6" d="M799.6,224.6v96h7.5v-96H799.6z"/>
		</g>
	</g>
	<g transform="matrix(1, 0, 0, 1, 161.25, 23.190778732299805)">
		<g>
			<path class="st6" d="M799.6,232.6c-44.2,0-80,35.8-80,80h80L799.6,232.6z"/>
		</g>
	</g>
	<g transform="matrix(1, 0, 0, 1, 161.25, 23.190778732299805)">
		<g>
			<path class="st5" d="M807.1,224.6l0,96h-7.5v-96H807.1z"/>
		</g>
	</g>
	<g transform="matrix(1, 0, 0, 1, 161.25, 23.190778732299805)">
		<g>
			<path class="st6" d="M807.1,224.6l0,96h-7.5v-96H807.1z"/>
		</g>
	</g>
	<g transform="matrix(1, 0, 0, 1, 161.25, 23.190778732299805)">
		<g>
			<path class="st5" d="M825.8,370.3v7.5h96v-7.5H825.8z"/>
		</g>
	</g>
	<g transform="matrix(1, 0, 0, 1, 161.25, 23.190778732299805)">
		<g>
			<path class="st6" d="M825.8,370.3v7.5h96v-7.5H825.8z"/>
		</g>
	</g>
	<g transform="matrix(1, 0, 0, 1, 161.25, 23.190778732299805)">
		<g>
			<path class="st6" d="M913.8,370.3c0-44.2-35.8-80-80-80v80H913.8z"/>
		</g>
	</g>
	<g transform="matrix(1, 0, 0, 1, 161.25, 23.190778732299805)">
		<g>
			<path class="st5" d="M921.8,377.8h-96v-7.5h96V377.8z"/>
		</g>
	</g>
	<g transform="matrix(1, 0, 0, 1, 161.25, 23.190778732299805)">
		<g>
			<path class="st6" d="M921.8,377.8h-96v-7.5h96V377.8z"/>
		</g>
	</g>
	
		<g transform="matrix(-0.00000002766111398555, 0.6328124999999993, -0.33203124999999967, -0.00000001451354746156, 1083.6109619140625, 275.784704208374)">
		<g transform="matrix(1, 0, 0, 1, -64, -64)">
			
				<image style="overflow:visible;enable-background:new    ;" width="128" height="128" xlink:href="2215B898.PNG"  transform="matrix(1 0 0 1 5.280422e-05 -5.326121e-05)">
			</image>
		</g>
	</g>
	
		<g transform="matrix(-0.00000001365980937558, 0.31249999999999967, -0.6249999999999993, -0.00000002731961875116, 1064.8609619140625, 177.47115898132324)">
		<g transform="matrix(1, 0, 0, 1, -64, -64)">
			
				<image style="overflow:visible;enable-background:new    ;" width="128" height="128" xlink:href="2215B8A6.PNG"  transform="matrix(1 0 0 1 5.238811e-06 0)">
			</image>
		</g>
	</g>
	
		<g transform="matrix(-0.00000003073457109506, 0.7031249999999993, -0.7031249999999993, -0.00000003073457109506, 1059.8609619140625, 71.98898696899414)">
		<g transform="matrix(1, 0, 0, 1, -64, -64)">
			<image style="overflow:visible;enable-background:new    ;" width="128" height="128" xlink:href="2215B8A9.PNG" >
			</image>
		</g>
	</g>
	
		<g transform="matrix(0.00000000682885760726, -0.5726562738418578, 0.36718749999999994, 0.000000004378667042, 991.8609619140625, 132.71996879577637)">
		<g transform="matrix(1, 0, 0, 1, -64, -64)">
			
				<image style="overflow:visible;enable-background:new    ;" width="128" height="128" xlink:href="2215B8AA.PNG"  transform="matrix(1 0 0 1 -2.959677e-05 8.572452e-05)">
			</image>
		</g>
	</g>
	<g transform="matrix(0.8515625, 0, 0, 0.4124999940395355, 634.2483520507812, 53.38896179199219)">
		<g transform="matrix(1, 0, 0, 1, -64, -64)">
			
				<image style="overflow:visible;enable-background:new    ;" width="128" height="128" xlink:href="2215B8A8.PNG"  transform="matrix(1 0 0 1 3.763759e-05 0)">
			</image>
		</g>
	</g>
	<g transform="matrix(1.12109375, 0, 0, 0.41874998807907104, 764.5953979492188, 53.788984298706055)">
		<g transform="matrix(1, 0, 0, 1, -64, -64)">
			
				<image style="overflow:visible;enable-background:new    ;" width="128" height="128" xlink:href="ED23AE9D.PNG"  transform="matrix(1 0 0 1 1.422648e-05 0)">
			</image>
		</g>
	</g>
	
		<g transform="matrix(-0.6640624999999974, -0.00000005805418984622, 0.00000002390466640727, -0.27343749999999895, 812.6459350585938, 375.9889965057373)">
		<g transform="matrix(1, 0, 0, 1, -64, -64)">
			
				<image style="overflow:visible;enable-background:new    ;" width="128" height="128" xlink:href="ED23AE93.PNG"  transform="matrix(1 0 0 1 4.809996e-05 1.164641e-04)">
			</image>
		</g>
	</g>
	
		<g transform="matrix(-1.0937499999999958, -0.00000009561866562907, 0.00000004630675586754, -0.5296875238418559, 670.1196899414062, 359.58895683288574)">
		<g transform="matrix(1, 0, 0, 1, -64, -64)">
			
				<image style="overflow:visible;enable-background:new    ;" width="128" height="128" xlink:href="ED23AE95.PNG"  transform="matrix(1 0 0 1 0 5.802262e-05)">
			</image>
		</g>
	</g>
	<g transform="matrix(0.49609375, 0, 0, 0.4976562559604645, 664.6457672119141, 281.74845695495605)">
		<g transform="matrix(1, 0, 0, 1, -64, -64)">
			
				<image style="overflow:visible;enable-background:new    ;" width="128" height="128" xlink:href="ED23AE97.PNG"  transform="matrix(1 0 0 1 3.215746e-05 -3.371396e-05)">
			</image>
		</g>
	</g>
	<g transform="matrix(1, 0, 0, 1, 161.25, 23.190778732299805)">
		<g>
			<path class="st5" d="M518.2,651.6v91.5h7.5v-91.5H518.2z"/>
		</g>
	</g>
	<g transform="matrix(1, 0, 0, 1, 161.25, 23.190778732299805)">
		<g>
			<path class="st6" d="M518.2,651.6v91.5h7.5v-91.5H518.2z"/>
		</g>
	</g>
	<g transform="matrix(1, 0, 0, 1, 161.25, 23.190778732299805)">
		<g>
			<path class="st5" d="M518.2,743.1v-91.5h7.5v91.5H518.2z"/>
		</g>
	</g>
	<g transform="matrix(1, 0, 0, 1, 161.25, 23.190778732299805)">
		<g>
			<path class="st6" d="M518.2,743.1v-91.5h7.5v91.5H518.2z"/>
		</g>
	</g>
	<g transform="matrix(1, 0, 0, 1, 161.25, 23.190778732299805)">
		<g>
			<path class="st5" d="M943.6,647.6v91.5h7.5v-91.5H943.6z"/>
		</g>
	</g>
	<g transform="matrix(1, 0, 0, 1, 161.25, 23.190778732299805)">
		<g>
			<path class="st6" d="M943.6,647.6v91.5h7.5v-91.5H943.6z"/>
		</g>
	</g>
	<g transform="matrix(1, 0, 0, 1, 161.25, 23.190778732299805)">
		<g>
			<path class="st5" d="M943.6,739.1v-91.5h7.5v91.5H943.6z"/>
		</g>
	</g>
	<g transform="matrix(1, 0, 0, 1, 161.25, 23.190778732299805)">
		<g>
			<path class="st6" d="M943.6,739.1v-91.5h7.5v91.5H943.6z"/>
		</g>
	</g>
	<g transform="matrix(1.642187476158142, 0, 0, 3.4820313453674316, 1916.7664794921875, 305.3633861541748)">
		<g transform="matrix(1, 0, 0, 1, -64, -64)">
			
				<image style="overflow:visible;enable-background:new    ;" width="128" height="128" xlink:href="ED23AE94.PNG"  transform="matrix(1 0 0 1 -1.825732e-05 -6.404533e-06)">
			</image>
		</g>
	</g>
	<g transform="matrix(0.621874988079071, 0, 0, 1.5867187976837158, 2136.7760620117188, 312.1244258880615)">
		<g transform="matrix(1, 0, 0, 1, -64, -64)">
			
				<image style="overflow:visible;enable-background:new    ;" width="128" height="128" xlink:href="ED23AE8C.PNG"  transform="matrix(1 0 0 1 0 8.265016e-06)">
			</image>
		</g>
	</g>
	
		<g transform="matrix(-0.00000001570878078192, 0.35937499999999967, -1.165624976158141, -0.00000005095108792876, 2174.3570556640625, 530.237211227417)">
		<g transform="matrix(1, 0, 0, 1, -64, -64)">
			
				<image style="overflow:visible;enable-background:new    ;" width="128" height="128" xlink:href="ED23AE8D.PNG"  transform="matrix(1 0 0 1 8.008506e-06 0)">
			</image>
		</g>
	</g>
	
		<g transform="matrix(0.35576309993840133, 0.35576311548930134, -0.42481651359876005, 0.42481649502944013, 830.5610961914062, 177.226411819458)">
		<g transform="matrix(1, 0, 0, 1, -64, -64)">
			
				<image style="overflow:visible;enable-background:new    ;" width="128" height="128" xlink:href="ED23AE8F.PNG"  transform="matrix(1 0 0 1 -1.064670e-04 0)">
			</image>
		</g>
	</g>
	<g transform="matrix(1, 0, 0, 1, 161.25, 23.190778732299805)">
		<g>
			<path class="st5" d="M1655-3.7v7.5h391v-7.5H1655z"/>
		</g>
	</g>
	<g transform="matrix(1, 0, 0, 1, 161.25, 23.190778732299805)">
		<g>
			<path class="st6" d="M1655-3.7v7.5h391v-7.5H1655z"/>
		</g>
	</g>
	<g transform="matrix(1, 0, 0, 1, 161.25, 23.190778732299805)">
		<g>
			<path class="st5" d="M1655-3.7h391v7.5h-391V-3.7z"/>
		</g>
	</g>
	<g transform="matrix(1, 0, 0, 1, 161.25, 23.190778732299805)">
		<g>
			<path class="st6" d="M1655-3.7h391v7.5h-391V-3.7z"/>
		</g>
	</g>
	<g transform="matrix(1, 0, 0, 1, 161.25, 23.190778732299805)">
		<g>
			<path class="st5" d="M1596.8,403.2v102h7.5v-102H1596.8z"/>
		</g>
	</g>
	<g transform="matrix(1, 0, 0, 1, 161.25, 23.190778732299805)">
		<g>
			<path class="st6" d="M1596.8,403.2v102h7.5v-102H1596.8z"/>
		</g>
	</g>
	<g transform="matrix(1, 0, 0, 1, 161.25, 23.190778732299805)">
		<g>
			<path class="st6" d="M1596.8,411.2c-47.5,0-86,38.5-86,86l86,0V411.2z"/>
		</g>
	</g>
	<g transform="matrix(1, 0, 0, 1, 161.25, 23.190778732299805)">
		<g>
			<path class="st5" d="M1604.3,403.2v102h-7.5v-102H1604.3z"/>
		</g>
	</g>
	<g transform="matrix(1, 0, 0, 1, 161.25, 23.190778732299805)">
		<g>
			<path class="st6" d="M1604.3,403.2v102h-7.5v-102H1604.3z"/>
		</g>
	</g>
	<g transform="matrix(1, 0, 0, 1, 161.25, 23.190778732299805)">
		<g>
			<path class="st5" d="M1230.5,846.3v7.5h99v-7.5H1230.5z"/>
		</g>
	</g>
	<g transform="matrix(1, 0, 0, 1, 161.25, 23.190778732299805)">
		<g>
			<path class="st6" d="M1230.5,846.3v7.5h99v-7.5H1230.5z"/>
		</g>
	</g>
	<g transform="matrix(1, 0, 0, 1, 161.25, 23.190778732299805)">
		<g>
			<path class="st6" d="M1238,853.8c0,46.4,37.6,84,84,84v-84H1238z"/>
		</g>
	</g>
	<g transform="matrix(1, 0, 0, 1, 161.25, 23.190778732299805)">
		<g>
			<path class="st5" d="M1230.5,846.3h99v7.5h-99V846.3z"/>
		</g>
	</g>
	<g transform="matrix(1, 0, 0, 1, 161.25, 23.190778732299805)">
		<g>
			<path class="st6" d="M1230.5,846.3h99v7.5h-99V846.3z"/>
		</g>
	</g>
	
		<g transform="matrix(0.00000002180017208144, -1.8281249999999998, 0.6203125119209288, 0.00000000739715254928, 1195.4241638183594, 218.75284385681152)">
		<g transform="matrix(1, 0, 0, 1, -64, -64)">
			
				<image style="overflow:visible;enable-background:new    ;" width="128" height="128" xlink:href="ED23AE8B.PNG"  transform="matrix(1 0 0 1 0 4.864929e-05)">
			</image>
		</g>
	</g>
	<g transform="matrix(1.2179687023162842, 0, 0, 0.32343751192092896, 1257.4511413574219, 47.68898582458496)">
		<g transform="matrix(1, 0, 0, 1, -64, -64)">
			
				<image style="overflow:visible;enable-background:new    ;" width="128" height="128" xlink:href="ED23AEB3.PNG"  transform="matrix(1 0 0 1 1.553960e-05 9.574940e-05)">
			</image>
		</g>
	</g>
	
		<g transform="matrix(-0.00000005976166601817, 1.3671874999999987, -0.7851562499999992, -0.00000003432027105615, 1381.114990234375, 234.67194175720215)">
		<g transform="matrix(1, 0, 0, 1, -64, -64)">
			
				<image style="overflow:visible;enable-background:new    ;" width="128" height="128" xlink:href="ED23AEA8.PNG"  transform="matrix(1 0 0 1 2.503800e-05 -2.554795e-05)">
			</image>
		</g>
	</g>
	<g transform="matrix(0.57421875, 0, 0, 0.47734373807907104, 1453.60791015625, 89.19316482543945)">
		<g transform="matrix(1, 0, 0, 1, -64, -64)">
			
				<image style="overflow:visible;enable-background:new    ;" width="128" height="128" xlink:href="ED23AEAB.PNG"  transform="matrix(1 0 0 1 2.813604e-05 3.513961e-05)">
			</image>
		</g>
	</g>
	
		<g transform="matrix(-0.00000001669911748273, 0.38203126192092857, -0.16406249999999983, -0.00000000717139992218, 1747.586181640625, 217.79745292663574)">
		<g transform="matrix(1, 0, 0, 1, -64, -64)">
			
				<image style="overflow:visible;enable-background:new    ;" width="128" height="128" xlink:href="ED23AEA9.PNG"  transform="matrix(1 0 0 1 -4.311165e-05 1.907233e-04)">
			</image>
		</g>
	</g>
	
		<g transform="matrix(-2.140624999999992, -0.00000018713938844547, 0.00000011815735109878, -1.351562499999995, 1399.2662353515625, 555.5315380096436)">
		<g transform="matrix(1, 0, 0, 1, -64, -64)">
			
				<image style="overflow:visible;enable-background:new    ;" width="128" height="128" xlink:href="ED23AEA7.PNG"  transform="matrix(1 0 0 1 0 2.354623e-05)">
			</image>
		</g>
	</g>
	
		<g transform="matrix(-0.00000000754704481028, 0.17265625298023207, -0.19843749701976757, -0.00000000867397882322, 1745.3862915039062, 314.48734855651855)">
		<g transform="matrix(1, 0, 0, 1, -64, -64)">
			
				<image style="overflow:visible;enable-background:new    ;" width="128" height="128" xlink:href="ED23AED8.PNG"  transform="matrix(1 0 0 1 -8.937149e-05 -1.650953e-04)">
			</image>
		</g>
	</g>
	
		<g transform="matrix(-0.00000006153744019484, 1.4078124761581408, -1.1351562738418568, -0.00000004961925859896, 2098.9371337890625, 722.1703929901123)">
		<g transform="matrix(1, 0, 0, 1, -64, -64)">
			
				<image style="overflow:visible;enable-background:new    ;" width="128" height="128" xlink:href="ED23AEDB.PNG"  transform="matrix(1 0 0 1 -1.927973e-05 -1.866089e-05)">
			</image>
		</g>
	</g>
	
		<g transform="matrix(0.3922232358039474, -0.3922233495748705, 0.39995733954515433, 0.3999572235308585, 1923.638427734375, 631.676191329956)">
		<g transform="matrix(1, 0, 0, 1, -64, -64)">
			
				<image style="overflow:visible;enable-background:new    ;" width="128" height="128" xlink:href="ED23AED9.PNG"  transform="matrix(1 0 0 1 -5.941195e-05 -3.328758e-05)">
			</image>
		</g>
	</g>
	
		<g transform="matrix(-0.2773436940058863, -0.480373498489893, 0.48984566230507104, -0.2828124488622403, 1921.8369140625, 804.4654369354248)">
		<g transform="matrix(1, 0, 0, 1, -64, -64)">
			
				<image style="overflow:visible;enable-background:new    ;" width="128" height="128" xlink:href="ED23AEDF.PNG"  transform="matrix(1 0 0 1 0 5.594425e-06)">
			</image>
		</g>
	</g>
	<g transform="matrix(0.703125, 0, 0, 0.749218761920929, 736.653076171875, 618.9389476776123)">
		<g transform="matrix(1, 0, 0, 1, -64, -64)">
			
				<image style="overflow:visible;enable-background:new    ;" width="128" height="128" xlink:href="ED23AEDA.PNG"  transform="matrix(1 0 0 1 0 2.012871e-05)">
			</image>
		</g>
	</g>
	
		<g transform="matrix(-0.00000004097942812675, 0.9374999999999991, -0.31249999999999967, -0.00000001365980937558, 707.9019165039062, 809.4889965057373)">
		<g transform="matrix(1, 0, 0, 1, -64, -64)">
			
				<image style="overflow:visible;enable-background:new    ;" width="128" height="128" xlink:href="ED23AEE5.PNG"  transform="matrix(1 0 0 1 0 -6.805090e-06)">
			</image>
		</g>
	</g>
	<g transform="matrix(0.762499988079071, 0, 0, 0.48124998807907104, 984.6799926757812, 601.788984298706)">
		<g transform="matrix(1, 0, 0, 1, -64, -64)">
			<image style="overflow:visible;enable-background:new    ;" width="128" height="128" xlink:href="ED23AEFF.PNG" >
			</image>
		</g>
	</g>
	<g transform="matrix(0.3453125059604645, 0, 0, 0.4781250059604645, 816.1800231933594, 601.5890026092529)">
		<g transform="matrix(1, 0, 0, 1, -64, -64)">
			
				<image style="overflow:visible;enable-background:new    ;" width="128" height="128" xlink:href="ED23AEFD.PNG"  transform="matrix(1 0 0 1 9.072774e-05 0)">
			</image>
		</g>
	</g>
	<g transform="matrix(0.762499988079071, 0, 0, 0.48124998807907104, 887.0799560546875, 601.788984298706)">
		<g transform="matrix(1, 0, 0, 1, -64, -64)">
			<image style="overflow:visible;enable-background:new    ;" width="128" height="128" xlink:href="ED23AEC3.PNG" >
			</image>
		</g>
	</g>
	
		<g transform="matrix(-1.0710937976837118, -0.00000009363799743826, 0.00000003722298054846, -0.4257812499999984, 589.7707366943359, 842.2389965057373)">
		<g transform="matrix(1, 0, 0, 1, -64, -64)">
			
				<image style="overflow:visible;enable-background:new    ;" width="128" height="128" xlink:href="ED23AEC5.PNG"  transform="matrix(1 0 0 1 1.213256e-05 -3.680736e-05)">
			</image>
		</g>
	</g>
	<g transform="matrix(0.4609375, 0, 0, 0.4828124940395355, 440.8309020996094, 601.8889293670654)">
		<g transform="matrix(1, 0, 0, 1, -64, -64)">
			
				<image style="overflow:visible;enable-background:new    ;" width="128" height="128" xlink:href="ED23AEC7.PNG"  transform="matrix(1 0 0 1 6.963975e-05 -6.545593e-05)">
			</image>
		</g>
	</g>
	<g transform="matrix(0.46875, 0, 0, 0.48906248807907104, 621.4781799316406, 602.288984298706)">
		<g transform="matrix(1, 0, 0, 1, -64, -64)">
			
				<image style="overflow:visible;enable-background:new    ;" width="128" height="128" xlink:href="ED23AEC2.PNG"  transform="matrix(1 0 0 1 0 -6.292089e-05)">
			</image>
		</g>
	</g>
	<g transform="matrix(0.4609375, 0, 0, 0.46953123807907104, 499.8309020996094, 601.038984298706)">
		<g transform="matrix(1, 0, 0, 1, -64, -64)">
			
				<image style="overflow:visible;enable-background:new    ;" width="128" height="128" xlink:href="ED23AEC1.PNG"  transform="matrix(1 0 0 1 6.963975e-05 -3.146164e-05)">
			</image>
		</g>
	</g>
	<g transform="matrix(0.46875, 0, 0, 0.484375, 1073.6478881835938, 601.9889965057373)">
		<g transform="matrix(1, 0, 0, 1, -64, -64)">
			<image style="overflow:visible;enable-background:new    ;" width="128" height="128" xlink:href="ED23AECD.PNG" >
			</image>
		</g>
	</g>
	
		<g transform="matrix(-0.00000001249872505758, 0.28593748807907077, -0.06406249850988381, -0.00000000280026085686, 675.3015441894531, 795.0051097869873)">
		<g transform="matrix(1, 0, 0, 1, -64, -64)">
			
				<image style="overflow:visible;enable-background:new    ;" width="128" height="128" xlink:href="ED23AECF.PNG"  transform="matrix(1 0 0 1 -1.087817e-04 -5.053920e-04)">
			</image>
		</g>
	</g>
	
		<g transform="matrix(-0.00000004097942812675, 0.9374999999999991, -0.31249999999999967, -0.00000001365980937558, 878.5972290039062, 809.488935470581)">
		<g transform="matrix(1, 0, 0, 1, -64, -64)">
			
				<image style="overflow:visible;enable-background:new    ;" width="128" height="128" xlink:href="ED23AEC0.PNG"  transform="matrix(1 0 0 1 0 -8.405090e-06)">
			</image>
		</g>
	</g>
	
		<g transform="matrix(-0.56015622615814, -0.00000004897041452714, 0.00000002704642152149, -0.3093749880790699, 463.6710510253906, 849.6890087127686)">
		<g transform="matrix(1, 0, 0, 1, -64, -64)">
			
				<image style="overflow:visible;enable-background:new    ;" width="128" height="128" xlink:href="ED23AF2E.PNG"  transform="matrix(1 0 0 1 -2.588477e-05 0)">
			</image>
		</g>
	</g>
	
		<g transform="matrix(-0.00000003206640303026, 0.7335937619209282, -0.5460937619209284, -0.00000002387051740491, 1069.9109497070312, 822.538984298706)">
		<g transform="matrix(1, 0, 0, 1, -64, -64)">
			
				<image style="overflow:visible;enable-background:new    ;" width="128" height="128" xlink:href="ED23AF2D.PNG"  transform="matrix(1 0 0 1 2.348658e-05 2.474471e-05)">
			</image>
		</g>
	</g>
	
		<g transform="matrix(0.0000000029812201137, -0.24999999999999997, 0.28124999999999994, 0.00000000335387262791, 836.6611938476562, 791.3416576385498)">
		<g transform="matrix(1, 0, 0, 1, -64, -64)">
			<image style="overflow:visible;enable-background:new    ;" width="128" height="128" xlink:href="ED23AF22.PNG" >
			</image>
		</g>
	</g>
	
		<g transform="matrix(0.0000000029812201137, -0.24999999999999997, 0.28124999999999994, 0.00000000335387262791, 836.6612548828125, 838.124677658081)">
		<g transform="matrix(1, 0, 0, 1, -64, -64)">
			<image style="overflow:visible;enable-background:new    ;" width="128" height="128" xlink:href="ED23AF25.PNG" >
			</image>
		</g>
	</g>
	
		<g transform="matrix(-0.06470475919695223, 0.24148145712924715, -0.271666639270403, -0.07279285409657127, 928.8513793945312, 788.5896434783936)">
		<g transform="matrix(1, 0, 0, 1, -64, -64)">
			
				<image style="overflow:visible;enable-background:new    ;" width="128" height="128" xlink:href="ED23AF26.PNG"  transform="matrix(1 0 0 1 -1.115305e-04 1.648328e-04)">
			</image>
		</g>
	</g>
	
		<g transform="matrix(-0.00000001092784750047, 0.24999999999999975, -0.2812499999999997, -0.00000001229382843802, 927.4754028320312, 839.500654220581)">
		<g transform="matrix(1, 0, 0, 1, -64, -64)">
			<image style="overflow:visible;enable-background:new    ;" width="128" height="128" xlink:href="ED23AF24.PNG" >
			</image>
		</g>
	</g>
	<g transform="matrix(1.25, 0, 0, 1.7578125, 1588.9901123046875, 240.42477989196777)">
		<g transform="matrix(1, 0, 0, 1, -64, -64)">
			
				<image style="overflow:visible;enable-background:new    ;" width="128" height="128" xlink:href="ED23AF23.PNG"  transform="matrix(1 0 0 1 0 1.830111e-05)">
			</image>
		</g>
	</g>
	
		<g transform="matrix(-0.6177197093307154, -0.35664062628623794, 0.3312500020433627, -0.5737418563576607, 1304.314208984375, 395.20821952819824)">
		<g transform="matrix(1, 0, 0, 1, -64, -64)">
			
				<image style="overflow:visible;enable-background:new    ;" width="128" height="128" xlink:href="ED23AF3D.PNG"  transform="matrix(1 0 0 1 4.605737e-05 2.748341e-05)">
			</image>
		</g>
	</g>
	<g transform="matrix(1, 0, 0, 1, 161.25, 23.190778732299805)">
		<g>
			<path class="st5" d="M1596.8,601.9v188h7.5v-188H1596.8z"/>
		</g>
	</g>
	<g transform="matrix(1, 0, 0, 1, 161.25, 23.190778732299805)">
		<g>
			<path class="st6" d="M1596.8,601.9v188h7.5v-188H1596.8z"/>
		</g>
	</g>
	<g transform="matrix(1, 0, 0, 1, 161.25, 23.190778732299805)">
		<g>
			<path class="st6" d="M1604.3,666.1c32.9,0,59.6,26.7,59.6,59.6h-59.6V666.1z"/>
		</g>
	</g>
	<g transform="matrix(1, 0, 0, 1, 161.25, 23.190778732299805)">
		<g>
			<path class="st6" d="M1604.3,666c32.9,0,59.6-26.7,59.6-59.6h-59.6V666z"/>
		</g>
	</g>
	<g transform="matrix(1, 0, 0, 1, 161.25, 23.190778732299805)">
		<g>
			<path class="st5" d="M1596.8,789.9v-188h7.5l0,188H1596.8z"/>
		</g>
	</g>
	<g transform="matrix(1, 0, 0, 1, 161.25, 23.190778732299805)">
		<g>
			<path class="st6" d="M1596.8,789.9v-188h7.5l0,188H1596.8z"/>
		</g>
	</g>
	<g transform="matrix(1, 0, 0, 1, 161.25, 23.190778732299805)">
		<g>
			<path class="st5" d="M196.8,89.4v188h7.5v-188l0,0H196.8z"/>
		</g>
	</g>
	<g transform="matrix(1, 0, 0, 1, 161.25, 23.190778732299805)">
		<g>
			<path class="st6" d="M196.8,89.4v188h7.5v-188l0,0H196.8z"/>
		</g>
	</g>
	<g transform="matrix(1, 0, 0, 1, 161.25, 23.190778732299805)">
		<g>
			<path class="st5" d="M204.3,89.4v188h-7.5v-188H204.3z"/>
		</g>
	</g>
	<g transform="matrix(1, 0, 0, 1, 161.25, 23.190778732299805)">
		<g>
			<path class="st6" d="M204.3,89.4v188h-7.5v-188H204.3z"/>
		</g>
	</g>
	<g transform="matrix(1, 0, 0, 1, 161.25, 23.190778732299805)">
		<g>
			<path class="st5" d="M196.8,601v188h7.5V601H196.8z"/>
		</g>
	</g>
	<g transform="matrix(1, 0, 0, 1, 161.25, 23.190778732299805)">
		<g>
			<path class="st6" d="M196.8,601v188h7.5V601H196.8z"/>
		</g>
	</g>
	<g transform="matrix(1, 0, 0, 1, 161.25, 23.190778732299805)">
		<g>
			<path class="st5" d="M204.3,601v188h-7.5V601H204.3z"/>
		</g>
	</g>
	<g transform="matrix(1, 0, 0, 1, 161.25, 23.190778732299805)">
		<g>
			<path class="st6" d="M204.3,601v188h-7.5V601H204.3z"/>
		</g>
	</g>
	
		<g transform="matrix(0.00000000555252231961, -0.465624988079071, 0.06328125298023222, 0.00000000075462137682, 972.4110107421875, 164.79162406921387)">
		<g transform="matrix(1, 0, 0, 1, -64, -64)">
			
				<image style="overflow:visible;enable-background:new    ;" width="128" height="128" xlink:href="ED23AF3E.PNG"  transform="matrix(1 0 0 1 0 -2.655443e-04)">
			</image>
		</g>
	</g>
	<g transform="matrix(1, 0, 0, 1, 161.25, 23.190778732299805)">
		<g>
			<path class="st5" d="M1368.4-3.7v7.5h132v-7.5H1368.4z"/>
		</g>
	</g>
	<g transform="matrix(1, 0, 0, 1, 161.25, 23.190778732299805)">
		<g>
			<path class="st6" d="M1368.4-3.7v7.5h132v-7.5H1368.4z"/>
		</g>
	</g>
	<g transform="matrix(1, 0, 0, 1, 161.25, 23.190778732299805)">
		<g>
			<path class="st6" d="M1433.9,3.8c0,35.1-28.4,63.5-63.5,63.5V3.8H1433.9z"/>
		</g>
	</g>
	<g transform="matrix(1, 0, 0, 1, 161.25, 23.190778732299805)">
		<g>
			<path class="st6" d="M1434.9,3.8c0,35.1,28.4,63.5,63.5,63.5V3.8H1434.9z"/>
		</g>
	</g>
	<g transform="matrix(1, 0, 0, 1, 161.25, 23.190778732299805)">
		<g>
			<path class="st5" d="M1368.4-3.7h132v7.5h-132V-3.7z"/>
		</g>
	</g>
	<g transform="matrix(1, 0, 0, 1, 161.25, 23.190778732299805)">
		<g>
			<path class="st6" d="M1368.4-3.7h132v7.5h-132V-3.7z"/>
		</g>
	</g>
	
		<g transform="matrix(-0.24525459784661255, 0.06571579737139958, -0.0717818709749134, -0.2678934838016845, 671.6793823242188, 363.5869731903076)">
		<g transform="matrix(1, 0, 0, 1, -64, -64)">
			
				<image style="overflow:visible;enable-background:new    ;" width="128" height="128" xlink:href="ED23AF3C.PNG"  transform="matrix(1 0 0 1 1.745714e-04 -1.237996e-04)">
			</image>
		</g>
	</g>
	
		<g transform="matrix(-0.000000004678484646, 0.10703124850988377, -0.10312499850988378, -0.00000000450773702881, 528.9251403808594, 841.7839183807373)">
		<g transform="matrix(1, 0, 0, 1, -64, -64)">
			
				<image style="overflow:visible;enable-background:new    ;" width="128" height="128" xlink:href="ED23AF19.PNG"  transform="matrix(1 0 0 1 -1.501365e-04 0)">
			</image>
		</g>
	</g>
	<g transform="matrix(0.0703125, 0, 0, 0.21171875298023224, 828.3682250976562, 593.2132396697998)">
		<g transform="matrix(1, 0, 0, 1, -64, -64)">
			
				<image style="overflow:visible;enable-background:new    ;" width="128" height="128" xlink:href="ED23AF1F.PNG"  transform="matrix(1 0 0 1 4.564968e-04 7.389607e-05)">
			</image>
		</g>
	</g>
	<g transform="matrix(0.29374998807907104, 0, 0, 0.203125, 873.5557250976562, 609.9264965057373)">
		<g transform="matrix(1, 0, 0, 1, -64, -64)">
			<image style="overflow:visible;enable-background:new    ;" width="128" height="128" xlink:href="ED23AF18.PNG" >
			</image>
		</g>
	</g>
	<g transform="matrix(0.20156249403953552, 0, 0, 0.17578125, 808.1820983886719, 592.031904220581)">
		<g transform="matrix(1, 0, 0, 1, -64, -64)">
			
				<image style="overflow:visible;enable-background:new    ;" width="128" height="128" xlink:href="ED23AF1B.PNG"  transform="matrix(1 0 0 1 -1.573326e-04 -8.882235e-05)">
			</image>
		</g>
	</g>
	<g transform="matrix(0.12421874701976776, 0, 0, 0.12421874701976776, 849.3272094726562, 584.6804637908936)">
		<g transform="matrix(1, 0, 0, 1, -64, -64)">
			
				<image style="overflow:visible;enable-background:new    ;" width="128" height="128" xlink:href="ED23AF17.PNG"  transform="matrix(1 0 0 1 1.341453e-04 1.299943e-04)">
			</image>
		</g>
	</g>
	<g transform="matrix(0.078125, 0, 0, 0.046875, 961.2709350585938, 581.1064281463623)">
		<g transform="matrix(1, 0, 0, 1, -64, -64)">
			
				<image style="overflow:visible;enable-background:new    ;" width="128" height="128" xlink:href="ED23AF07.PNG"  transform="matrix(1 0 0 1 0 6.666665e-06)">
			</image>
		</g>
	</g>
	<g transform="matrix(0.02734375, 0, 0, 0.20546874403953552, 899.5421142578125, 609.8319835662842)">
		<g transform="matrix(1, 0, 0, 1, -64, -64)">
			
				<image style="overflow:visible;enable-background:new    ;" width="128" height="128" xlink:href="ED23AF09.PNG"  transform="matrix(1 0 0 1 5.945660e-04 8.077284e-05)">
			</image>
		</g>
	</g>
	<g transform="matrix(0.13984374701976776, 0, 0, 0.12656250596046448, 1058.0023193359375, 614.7854137420654)">
		<g transform="matrix(1, 0, 0, 1, -64, -64)">
			
				<image style="overflow:visible;enable-background:new    ;" width="128" height="128" xlink:href="ED23AF0B.PNG"  transform="matrix(1 0 0 1 1.181793e-04 2.529108e-04)">
			</image>
		</g>
	</g>
	<g transform="matrix(0.05624999850988388, 0, 0, 0.06796874850988388, 1093.0857849121094, 303.2223644256592)">
		<g transform="matrix(1, 0, 0, 1, -64, -64)">
			
				<image style="overflow:visible;enable-background:new    ;" width="128" height="128" xlink:href="ED23AF08.PNG"  transform="matrix(1 0 0 1 9.334311e-06 2.378965e-04)">
			</image>
		</g>
	</g>
	<g transform="matrix(0.0546875, 0, 0, 0.04531250149011612, 1076.5977172851562, 245.43837547302246)">
		<g transform="matrix(1, 0, 0, 1, -64, -64)">
			
				<image style="overflow:visible;enable-background:new    ;" width="128" height="128" xlink:href="ED23AF0F.PNG"  transform="matrix(1 0 0 1 5.897089e-04 6.985989e-04)">
			</image>
		</g>
	</g>
	<g transform="matrix(0.16875000298023224, 0, 0, 0.11484374850988388, 873.1871337890625, 609.6809215545654)">
		<g transform="matrix(1, 0, 0, 1, -64, -64)">
			
				<image style="overflow:visible;enable-background:new    ;" width="128" height="128" xlink:href="ED23AF6C.PNG"  transform="matrix(1 0 0 1 0 1.419185e-04)">
			</image>
		</g>
	</g>
	<g transform="matrix(0.12734374403953552, 0, 0, 0.08281250298023224, 705.9150695800781, 766.912031173706)">
		<g transform="matrix(1, 0, 0, 1, -64, -64)">
			
				<image style="overflow:visible;enable-background:new    ;" width="128" height="128" xlink:href="ED23AF6F.PNG"  transform="matrix(1 0 0 1 1.291303e-04 3.882133e-04)">
			</image>
		</g>
	</g>
	
		<g transform="matrix(0.0000000029812201137, -0.24999999999999997, 0.262499988079071, 0.00000000313028097723, 710.5814819335938, 795.109052658081)">
		<g transform="matrix(1, 0, 0, 1, -64, -64)">
			<image style="overflow:visible;enable-background:new    ;" width="128" height="128" xlink:href="ED23AF6D.PNG" >
			</image>
		</g>
	</g>
	<g transform="matrix(0.06093750149011612, 0, 0, 0.06093750149011612, 878.9120788574219, 772.4256725311279)">
		<g transform="matrix(1, 0, 0, 1, -64, -64)">
			
				<image style="overflow:visible;enable-background:new    ;" width="128" height="128" xlink:href="ED23AF13.PNG"  transform="matrix(1 0 0 1 5.297127e-04 5.265076e-04)">
			</image>
		</g>
	</g>
	<g transform="matrix(0.03203124925494194, 0, 0, 0.03203124925494194, 890.1338500976562, 861.3899364471436)">
		<g transform="matrix(1, 0, 0, 1, -64, -64)">
			
				<image style="overflow:visible;enable-background:new    ;" width="128" height="128" xlink:href="ED23AF14.PNG"  transform="matrix(1 0 0 1 -4.949786e-04 -5.101007e-04)">
			</image>
		</g>
	</g>
	<g transform="matrix(0.125, 0, 0, 0.125, 874.7562866210938, 856.3321361541748)">
		<g transform="matrix(1, 0, 0, 1, -64, -64)">
			<image style="overflow:visible;enable-background:new    ;" width="128" height="128" xlink:href="ED23AF16.PNG" >
			</image>
		</g>
	</g>
	<g transform="matrix(0.23203125596046448, 0, 0, 0.234375, 880.2303771972656, 804.8533153533936)">
		<g transform="matrix(1, 0, 0, 1, -64, -64)">
			
				<image style="overflow:visible;enable-background:new    ;" width="128" height="128" xlink:href="ED23AF15.PNG"  transform="matrix(1 0 0 1 -7.198082e-05 0)">
			</image>
		</g>
	</g>
	<g transform="matrix(0.05859375, 0, 0, 0.05781250074505806, 889.7698974609375, 784.6094799041748)">
		<g transform="matrix(1, 0, 0, 1, -64, -64)">
			
				<image style="overflow:visible;enable-background:new    ;" width="128" height="128" xlink:href="ED23AF12.PNG"  transform="matrix(1 0 0 1 2.809321e-04 5.539001e-04)">
			</image>
		</g>
	</g>
	<g transform="matrix(0.05859375, 0, 0, 0.05781250074505806, 871.1942749023438, 783.9214916229248)">
		<g transform="matrix(1, 0, 0, 1, -64, -64)">
			
				<image style="overflow:visible;enable-background:new    ;" width="128" height="128" xlink:href="ED23AF1C.PNG"  transform="matrix(1 0 0 1 2.713988e-04 5.490353e-04)">
			</image>
		</g>
	</g>
	
		<g transform="matrix(-0.00000005156578039282, 1.179687499999999, -0.1015624999999999, -0.00000000443943804706, 954.3609619140625, 139.66692924499512)">
		<g transform="matrix(1, 0, 0, 1, -64, -64)">
			
				<image style="overflow:visible;enable-background:new    ;" width="128" height="128" xlink:href="ED23AF1E.PNG"  transform="matrix(1 0 0 1 2.749580e-05 2.834273e-04)">
			</image>
		</g>
	</g>
	
		<g transform="matrix(-0.00000005156578039282, 1.179687499999999, -0.1015624999999999, -0.00000000443943804706, 1751.586181640625, 214.27641105651855)">
		<g transform="matrix(1, 0, 0, 1, -64, -64)">
			
				<image style="overflow:visible;enable-background:new    ;" width="128" height="128" xlink:href="ED23AF33.PNG"  transform="matrix(1 0 0 1 2.733603e-05 2.861196e-04)">
			</image>
		</g>
	</g>
	
		<g transform="matrix(0.00000000479790112049, -0.40234374999999994, 0.37343749403953547, 0.00000000445319747376, 710.8015441894531, 843.7389965057373)">
		<g transform="matrix(1, 0, 0, 1, -64, -64)">
			
				<image style="overflow:visible;enable-background:new    ;" width="128" height="128" xlink:href="ED23AF31.PNG"  transform="matrix(1 0 0 1 4.129086e-05 -8.636991e-05)">
			</image>
		</g>
	</g>
	
		<g transform="matrix(-0.00000002390466640727, 0.5468749999999994, -0.0976562499999999, -0.00000000426869042987, 1098.6109619140625, 275.13917350769043)">
		<g transform="matrix(1, 0, 0, 1, -64, -64)">
			
				<image style="overflow:visible;enable-background:new    ;" width="128" height="128" xlink:href="ED23AF3F.PNG"  transform="matrix(1 0 0 1 0 -1.786267e-04)">
			</image>
		</g>
	</g>
	
		<g transform="matrix(0.00000000652141899872, -0.5468749999999999, 0.09765624999999999, 0.00000000116453910691, 974.6109619140625, 71.66316795349121)">
		<g transform="matrix(1, 0, 0, 1, -64, -64)">
			
				<image style="overflow:visible;enable-background:new    ;" width="128" height="128" xlink:href="ED23AF32.PNG"  transform="matrix(1 0 0 1 0 -1.689943e-04)">
			</image>
		</g>
	</g>
	
		<g transform="matrix(-0.00000002048971406337, 0.46874999999999956, -0.32031249999999967, -0.00000001400130460997, 1084.3609619140625, 824.6692333221436)">
		<g transform="matrix(1, 0, 0, 1, -64, -64)">
			
				<image style="overflow:visible;enable-background:new    ;" width="128" height="128" xlink:href="ED23AF35.PNG"  transform="matrix(1 0 0 1 0 9.607663e-05)">
			</image>
		</g>
	</g>
	<g transform="matrix(0.26249998807907104, 0, 0, 0.25078123807907104, 916.5796508789062, 587.038984298706)">
		<g transform="matrix(1, 0, 0, 1, -64, -64)">
			
				<image style="overflow:visible;enable-background:new    ;" width="128" height="128" xlink:href="ED23AF36.PNG"  transform="matrix(1 0 0 1 0 -5.890485e-05)">
			</image>
		</g>
	</g>
	<g transform="matrix(0.46875, 0, 0, 0.3203125, 832.0855712890625, 591.4889965057373)">
		<g transform="matrix(1, 0, 0, 1, -64, -64)">
			
				<image style="overflow:visible;enable-background:new    ;" width="128" height="128" xlink:href="ED23AF37.PNG"  transform="matrix(1 0 0 1 0 9.887789e-05)">
			</image>
		</g>
	</g>
	<g transform="matrix(1, 0, 0, 1, 622.554931640625, 211.9889965057373)" class="st0">
		<g class="st1">
			<path d="M12,0H1.3v-2.5c0.8-0.7,1.5-1.4,2.2-2.1s1.4-1.4,2-2.1c1.3-1.5,2.2-2.6,2.7-3.5s0.7-1.8,0.7-2.7c0-0.5-0.1-0.9-0.2-1.3
				s-0.4-0.7-0.6-0.9c-0.3-0.2-0.6-0.4-0.9-0.5s-0.8-0.2-1.2-0.2c-0.4,0-0.8,0.1-1.3,0.2s-0.8,0.2-1.2,0.4c-0.3,0.1-0.6,0.3-0.9,0.5
				S2-14.4,1.8-14.3H1.6v-2.5c0.5-0.2,1.2-0.5,2-0.7s1.7-0.3,2.5-0.3c1.6,0,2.9,0.4,3.8,1.3c0.9,0.9,1.4,2,1.4,3.5
				c0,0.7-0.1,1.3-0.2,1.9s-0.4,1.1-0.7,1.6c-0.3,0.5-0.6,1-1,1.5S8.5-7,8.1-6.5C7.4-5.7,6.5-4.9,5.6-4S4-2.5,3.5-2H12V0z M25.1,0
				H14.4v-2.5c0.8-0.7,1.5-1.4,2.2-2.1s1.4-1.4,2-2.1c1.3-1.5,2.2-2.6,2.7-3.5S22-12,22-12.9c0-0.5-0.1-0.9-0.2-1.3
				s-0.4-0.7-0.6-0.9c-0.3-0.2-0.6-0.4-0.9-0.5s-0.8-0.2-1.2-0.2c-0.4,0-0.8,0.1-1.3,0.2s-0.8,0.2-1.2,0.4c-0.3,0.1-0.6,0.3-0.9,0.5
				s-0.6,0.3-0.7,0.5h-0.1v-2.5c0.5-0.2,1.2-0.5,2-0.7s1.7-0.3,2.5-0.3c1.6,0,2.9,0.4,3.8,1.3c0.9,0.9,1.4,2,1.4,3.5
				c0,0.7-0.1,1.3-0.2,1.9s-0.4,1.1-0.7,1.6c-0.3,0.5-0.6,1-1,1.5s-0.8,1-1.3,1.5c-0.7,0.8-1.6,1.6-2.5,2.5s-1.6,1.5-2.2,2h8.6V0z
				 M32.1-3.3l-3.3,7.7h-1.7l2.1-7.7H32.1z M45.5,0H34.8v-2.5c0.8-0.7,1.5-1.4,2.2-2.1s1.4-1.4,2-2.1c1.3-1.5,2.2-2.6,2.7-3.5
				s0.7-1.8,0.7-2.7c0-0.5-0.1-0.9-0.2-1.3s-0.4-0.7-0.6-0.9c-0.3-0.2-0.6-0.4-0.9-0.5s-0.8-0.2-1.2-0.2c-0.4,0-0.8,0.1-1.3,0.2
				s-0.8,0.2-1.2,0.4c-0.3,0.1-0.6,0.3-0.9,0.5s-0.6,0.3-0.7,0.5h-0.1v-2.5c0.5-0.2,1.2-0.5,2-0.7s1.7-0.3,2.5-0.3
				c1.6,0,2.9,0.4,3.8,1.3c0.9,0.9,1.4,2,1.4,3.5c0,0.7-0.1,1.3-0.2,1.9s-0.4,1.1-0.7,1.6c-0.3,0.5-0.6,1-1,1.5S42-7,41.6-6.5
				C40.8-5.7,40-4.9,39.1-4s-1.6,1.5-2.2,2h8.6V0z M70.5,0v-7.6c0-0.6,0-1.1-0.1-1.7s-0.1-0.9-0.3-1.2c-0.2-0.3-0.4-0.5-0.7-0.7
				s-0.7-0.2-1.2-0.2c-0.4,0-0.9,0.1-1.5,0.4s-1.1,0.7-1.6,1.2c0,0.1,0,0.3,0,0.5s0,0.4,0,0.7V0h-2.2v-7.6c0-0.6,0-1.1-0.1-1.7
				s-0.1-0.9-0.3-1.2c-0.2-0.3-0.4-0.5-0.7-0.7s-0.7-0.2-1.2-0.2c-0.5,0-1,0.1-1.5,0.4s-1,0.7-1.5,1.1V0h-2.2v-13.1h2.2v1.5
				c0.6-0.6,1.2-1,1.7-1.3s1.2-0.5,1.9-0.5c0.8,0,1.5,0.2,2.1,0.5c0.6,0.3,1.1,0.9,1.4,1.7c0.7-0.8,1.3-1.3,1.9-1.7s1.3-0.6,2.1-0.6
				c0.6,0,1.1,0.1,1.5,0.3s0.9,0.5,1.2,0.8c0.3,0.4,0.6,0.9,0.8,1.5s0.3,1.3,0.3,2.3V0H70.5z M84.4-6.6h-8v-1.8
				c0.6-0.5,1.2-0.9,1.7-1.3s1-0.8,1.3-1.1c0.8-0.8,1.4-1.4,1.6-1.9s0.4-1,0.4-1.6c0-0.5-0.2-1-0.5-1.3s-0.8-0.4-1.4-0.4
				c-0.5,0-1.1,0.1-1.6,0.4s-1,0.5-1.3,0.7h-0.2v-2.1c0.5-0.2,1-0.4,1.6-0.5s1.2-0.2,1.8-0.2c1.2,0,2.2,0.3,2.8,0.9s1,1.4,1,2.4
				c0,0.7-0.2,1.3-0.5,1.9s-0.9,1.3-1.7,2.1c-0.4,0.4-0.9,0.7-1.4,1.1s-1,0.8-1.4,1.1h5.8V-6.6z"/>
		</g>
	</g>
	<g transform="matrix(1, 0, 0, 1, 993.9423217773438, 211.9889965057373)" class="st0">
		<g class="st1">
			<path d="M11.8-5.6c0,0.8-0.1,1.6-0.4,2.3s-0.6,1.3-1.1,1.9S9.2-0.4,8.5-0.1S6.9,0.4,6,0.4c-0.8,0-1.7-0.1-2.5-0.3S2-0.3,1.5-0.6
				v-2.5h0.2C1.8-3,2.1-2.8,2.4-2.7s0.7,0.3,1.1,0.5C4-2,4.4-1.9,4.8-1.8s0.8,0.1,1.3,0.1c0.5,0,0.9-0.1,1.4-0.3s0.8-0.4,1.1-0.8
				c0.3-0.3,0.5-0.7,0.7-1.2s0.2-1,0.2-1.6S9.4-6.7,9.2-7.1s-0.4-0.7-0.7-1C8.2-8.4,7.7-8.6,7.3-8.7s-1-0.2-1.6-0.2
				c-0.6,0-1.3,0-1.9,0.1S2.6-8.6,2.2-8.5v-9h9.6v2H4.4v4.6c0.3,0,0.6-0.1,0.8-0.1s0.5,0,0.8,0c0.9,0,1.6,0.1,2.3,0.2
				s1.2,0.4,1.8,0.9c0.6,0.4,1,1,1.3,1.6S11.8-6.6,11.8-5.6z M19-3.3l-3.3,7.7H14L16-3.3H19z M31.5,0H23v-1.8h3.2v-11.7H23v-1.6
				c1.2,0,2.1-0.2,2.6-0.5s0.9-1,1-1.9h1.8v15.7h3.1V0z M43-13.4c0-0.8-0.3-1.4-0.8-2s-1.2-0.8-2.2-0.8c-0.9,0-1.6,0.2-2.1,0.7
				s-0.8,1.1-0.8,1.9c0,0.6,0.1,1.1,0.4,1.5s0.7,0.8,1.2,1.1c0.2,0.1,0.6,0.3,1.1,0.6s1,0.4,1.4,0.6c0.7-0.5,1.1-1.1,1.4-1.6
				S43-12.7,43-13.4z M43.3-4.6c0-0.7-0.1-1.3-0.4-1.7s-0.8-0.9-1.6-1.3c-0.3-0.1-0.6-0.3-1.1-0.5c-0.4-0.2-0.9-0.4-1.5-0.6
				c-0.7,0.4-1.2,1-1.5,1.6S36.7-5.8,36.7-5c0,1.1,0.3,1.9,1,2.6s1.4,1,2.4,1c1,0,1.8-0.3,2.4-0.9S43.3-3.6,43.3-4.6z M40,0.4
				c-0.9,0-1.7-0.1-2.4-0.4s-1.3-0.6-1.8-1.1c-0.5-0.5-0.9-1-1.1-1.7s-0.4-1.3-0.4-2c0-0.9,0.3-1.8,0.8-2.6c0.5-0.8,1.2-1.4,2.2-1.9
				v-0.1c-0.9-0.5-1.5-1-1.9-1.6s-0.6-1.3-0.6-2.2c0-1.3,0.5-2.4,1.5-3.3s2.2-1.3,3.8-1.3c1.6,0,2.9,0.4,3.8,1.2s1.4,1.9,1.4,3.2
				c0,0.8-0.2,1.6-0.7,2.3s-1.1,1.4-2,1.8v0.1c1,0.5,1.8,1,2.3,1.7c0.5,0.7,0.8,1.6,0.8,2.6c0,1.5-0.5,2.7-1.6,3.8S41.6,0.4,40,0.4z
				 M70.5,0v-7.6c0-0.6,0-1.1-0.1-1.7s-0.1-0.9-0.3-1.2c-0.2-0.3-0.4-0.5-0.7-0.7s-0.7-0.2-1.2-0.2c-0.4,0-0.9,0.1-1.5,0.4
				s-1.1,0.7-1.6,1.2c0,0.1,0,0.3,0,0.5s0,0.4,0,0.7V0h-2.2v-7.6c0-0.6,0-1.1-0.1-1.7s-0.1-0.9-0.3-1.2c-0.2-0.3-0.4-0.5-0.7-0.7
				s-0.7-0.2-1.2-0.2c-0.5,0-1,0.1-1.5,0.4s-1,0.7-1.5,1.1V0h-2.2v-13.1h2.2v1.5c0.6-0.6,1.2-1,1.7-1.3s1.2-0.5,1.9-0.5
				c0.8,0,1.5,0.2,2.1,0.5c0.6,0.3,1.1,0.9,1.4,1.7c0.7-0.8,1.3-1.3,1.9-1.7s1.3-0.6,2.1-0.6c0.6,0,1.1,0.1,1.5,0.3s0.9,0.5,1.2,0.8
				c0.3,0.4,0.6,0.9,0.8,1.5s0.3,1.3,0.3,2.3V0H70.5z M84.4-6.6h-8v-1.8c0.6-0.5,1.2-0.9,1.7-1.3s1-0.8,1.3-1.1
				c0.8-0.8,1.4-1.4,1.6-1.9s0.4-1,0.4-1.6c0-0.5-0.2-1-0.5-1.3s-0.8-0.4-1.4-0.4c-0.5,0-1.1,0.1-1.6,0.4s-1,0.5-1.3,0.7h-0.2v-2.1
				c0.5-0.2,1-0.4,1.6-0.5s1.2-0.2,1.8-0.2c1.2,0,2.2,0.3,2.8,0.9s1,1.4,1,2.4c0,0.7-0.2,1.3-0.5,1.9s-0.9,1.3-1.7,2.1
				c-0.4,0.4-0.9,0.7-1.4,1.1s-1,0.8-1.4,1.1h5.8V-6.6z"/>
		</g>
	</g>
	<g transform="matrix(1, 0, 0, 1, 482.054931640625, 720.9889965057373)" class="st0">
		<g class="st1">
			<path d="M9.8-10.3c0-1.2-0.1-2.2-0.3-2.9s-0.5-1.3-0.9-1.7c-0.3-0.4-0.7-0.6-1-0.8s-0.7-0.2-1.2-0.2c-1,0-1.7,0.3-2.3,1
				s-0.9,1.7-0.9,3c0,0.7,0.1,1.3,0.3,1.8s0.5,0.9,0.9,1.2c0.3,0.2,0.6,0.4,1,0.5s0.8,0.1,1.2,0.1c0.5,0,1-0.1,1.6-0.3
				s1.1-0.4,1.5-0.7c0-0.1,0-0.3,0-0.5S9.8-10,9.8-10.3z M0.8-11.8c0-0.9,0.1-1.7,0.4-2.5s0.7-1.4,1.2-1.9c0.5-0.5,1.1-0.9,1.8-1.2
				s1.4-0.4,2.1-0.4c0.8,0,1.5,0.1,2.2,0.4s1.2,0.7,1.7,1.2c0.6,0.6,1.1,1.5,1.4,2.5s0.5,2.3,0.5,3.9c0,1.4-0.2,2.8-0.5,4.1
				s-0.8,2.4-1.4,3.2C9.5-1.5,8.7-0.9,7.8-0.4S5.7,0.3,4.3,0.3c-0.3,0-0.6,0-1-0.1s-0.7-0.1-1-0.2v-2.2h0.1C2.6-2,2.9-1.9,3.3-1.8
				s0.8,0.2,1.3,0.2c1.5,0,2.7-0.5,3.6-1.5s1.4-2.5,1.5-4.3C9.1-7.1,8.5-6.8,7.9-6.6S6.7-6.3,6.1-6.3c-0.6,0-1.2-0.1-1.8-0.2
				S3.2-6.9,2.7-7.3C2.1-7.8,1.6-8.4,1.3-9.1S0.8-10.8,0.8-11.8z M19-3.3l-3.3,7.7H14L16-3.3H19z M32.2-5.6c0,0.8-0.1,1.6-0.4,2.3
				s-0.6,1.3-1.1,1.9s-1.1,0.9-1.8,1.3s-1.5,0.5-2.5,0.5c-0.8,0-1.7-0.1-2.5-0.3s-1.5-0.4-2.1-0.7v-2.5H22c0.2,0.1,0.4,0.3,0.8,0.5
				s0.7,0.3,1.1,0.5c0.5,0.2,0.9,0.3,1.3,0.4s0.8,0.1,1.3,0.1c0.5,0,0.9-0.1,1.4-0.3s0.8-0.4,1.1-0.8c0.3-0.3,0.5-0.7,0.7-1.2
				c0.2-0.5,0.2-1,0.2-1.6s-0.1-1.1-0.3-1.5s-0.4-0.7-0.7-1c-0.3-0.3-0.7-0.5-1.2-0.6s-1-0.2-1.6-0.2c-0.6,0-1.3,0-1.9,0.1
				s-1.2,0.2-1.5,0.3v-9h9.6v2h-7.3v4.6c0.3,0,0.6-0.1,0.8-0.1s0.5,0,0.8,0c0.9,0,1.6,0.1,2.3,0.2s1.2,0.4,1.8,0.9
				c0.6,0.4,1,1,1.3,1.6C32.1-7.5,32.2-6.6,32.2-5.6z M46-6h-2.1v6h-2.3v-6h-7.7v-2.5l7.8-9h2.2v9.6H46V-6z M41.7-7.9v-6.8l-5.9,6.8
				H41.7z M70.5,0v-7.6c0-0.6,0-1.1-0.1-1.7s-0.1-0.9-0.3-1.2c-0.2-0.3-0.4-0.5-0.7-0.7s-0.7-0.2-1.2-0.2c-0.4,0-0.9,0.1-1.5,0.4
				s-1.1,0.7-1.6,1.2c0,0.1,0,0.3,0,0.5s0,0.4,0,0.7V0h-2.2v-7.6c0-0.6,0-1.1-0.1-1.7s-0.1-0.9-0.3-1.2c-0.2-0.3-0.4-0.5-0.7-0.7
				s-0.7-0.2-1.2-0.2c-0.5,0-1,0.1-1.5,0.4s-1,0.7-1.5,1.1V0h-2.2v-13.1h2.2v1.5c0.6-0.6,1.2-1,1.7-1.3s1.2-0.5,1.9-0.5
				c0.8,0,1.5,0.2,2.1,0.5c0.6,0.3,1.1,0.9,1.4,1.7c0.7-0.8,1.3-1.3,1.9-1.7s1.3-0.6,2.1-0.6c0.6,0,1.1,0.1,1.5,0.3s0.9,0.5,1.2,0.8
				c0.3,0.4,0.6,0.9,0.8,1.5s0.3,1.3,0.3,2.3V0H70.5z M84.4-6.6h-8v-1.8c0.6-0.5,1.2-0.9,1.7-1.3s1-0.8,1.3-1.1
				c0.8-0.8,1.4-1.4,1.6-1.9s0.4-1,0.4-1.6c0-0.5-0.2-1-0.5-1.3s-0.8-0.4-1.4-0.4c-0.5,0-1.1,0.1-1.6,0.4s-1,0.5-1.3,0.7h-0.2v-2.1
				c0.5-0.2,1-0.4,1.6-0.5s1.2-0.2,1.8-0.2c1.2,0,2.2,0.3,2.8,0.9s1,1.4,1,2.4c0,0.7-0.2,1.3-0.5,1.9s-0.9,1.3-1.7,2.1
				c-0.4,0.4-0.9,0.7-1.4,1.1s-1,0.8-1.4,1.1h5.8V-6.6z"/>
		</g>
	</g>
	<g transform="matrix(1, 0, 0, 1, 845.1415405273438, 719.9889965057373)" class="st0">
		<g class="st1">
			<path d="M11.2,0H2.7v-1.8h3.2v-11.7H2.7v-1.6c1.2,0,2.1-0.2,2.6-0.5s0.9-1,1-1.9h1.8v15.7h3.1V0z M25.1,0H14.4v-2.5
				c0.8-0.7,1.5-1.4,2.2-2.1s1.4-1.4,2-2.1c1.3-1.5,2.2-2.6,2.7-3.5S22-12,22-12.9c0-0.5-0.1-0.9-0.2-1.3s-0.4-0.7-0.6-0.9
				c-0.3-0.2-0.6-0.4-0.9-0.5s-0.8-0.2-1.2-0.2c-0.4,0-0.8,0.1-1.3,0.2s-0.8,0.2-1.2,0.4c-0.3,0.1-0.6,0.3-0.9,0.5s-0.6,0.3-0.7,0.5
				h-0.1v-2.5c0.5-0.2,1.2-0.5,2-0.7s1.7-0.3,2.5-0.3c1.6,0,2.9,0.4,3.8,1.3c0.9,0.9,1.4,2,1.4,3.5c0,0.7-0.1,1.3-0.2,1.9
				s-0.4,1.1-0.7,1.6c-0.3,0.5-0.6,1-1,1.5s-0.8,1-1.3,1.5c-0.7,0.8-1.6,1.6-2.5,2.5s-1.6,1.5-2.2,2h8.6V0z M32.1-3.3l-3.3,7.7h-1.7
				l2.1-7.7H32.1z M45.3-5.6c0,0.8-0.1,1.6-0.4,2.3s-0.6,1.3-1.1,1.9S42.7-0.4,42-0.1s-1.5,0.5-2.5,0.5c-0.8,0-1.7-0.1-2.5-0.3
				s-1.5-0.4-2.1-0.7v-2.5h0.2c0.2,0.1,0.4,0.3,0.8,0.5s0.7,0.3,1.1,0.5c0.5,0.2,0.9,0.3,1.3,0.4s0.8,0.1,1.3,0.1
				c0.5,0,0.9-0.1,1.4-0.3s0.8-0.4,1.1-0.8c0.3-0.3,0.5-0.7,0.7-1.2c0.2-0.5,0.2-1,0.2-1.6s-0.1-1.1-0.3-1.5s-0.4-0.7-0.7-1
				c-0.3-0.3-0.7-0.5-1.2-0.6s-1-0.2-1.6-0.2c-0.6,0-1.3,0-1.9,0.1S36-8.6,35.6-8.5v-9h9.6v2h-7.3v4.6c0.3,0,0.6-0.1,0.8-0.1
				s0.5,0,0.8,0c0.9,0,1.6,0.1,2.3,0.2s1.2,0.4,1.8,0.9c0.6,0.4,1,1,1.3,1.6S45.3-6.6,45.3-5.6z M58.6,0H47.9v-2.5
				c0.8-0.7,1.5-1.4,2.2-2.1s1.4-1.4,2-2.1c1.3-1.5,2.2-2.6,2.7-3.5s0.7-1.8,0.7-2.7c0-0.5-0.1-0.9-0.2-1.3s-0.4-0.7-0.6-0.9
				c-0.3-0.2-0.6-0.4-0.9-0.5s-0.8-0.2-1.2-0.2c-0.4,0-0.8,0.1-1.3,0.2s-0.8,0.2-1.2,0.4c-0.3,0.1-0.6,0.3-0.9,0.5s-0.6,0.3-0.7,0.5
				h-0.1v-2.5c0.5-0.2,1.2-0.5,2-0.7s1.7-0.3,2.5-0.3c1.6,0,2.9,0.4,3.8,1.3c0.9,0.9,1.4,2,1.4,3.5c0,0.7-0.1,1.3-0.2,1.9
				S57.3-10,57-9.5c-0.3,0.5-0.6,1-1,1.5s-0.8,1-1.3,1.5c-0.7,0.8-1.6,1.6-2.5,2.5S50.6-2.5,50-2h8.6V0z M83.6,0v-7.6
				c0-0.6,0-1.1-0.1-1.7s-0.1-0.9-0.3-1.2c-0.2-0.3-0.4-0.5-0.7-0.7s-0.7-0.2-1.2-0.2c-0.4,0-0.9,0.1-1.5,0.4s-1.1,0.7-1.6,1.2
				c0,0.1,0,0.3,0,0.5s0,0.4,0,0.7V0h-2.2v-7.6c0-0.6,0-1.1-0.1-1.7s-0.1-0.9-0.3-1.2c-0.2-0.3-0.4-0.5-0.7-0.7s-0.7-0.2-1.2-0.2
				c-0.5,0-1,0.1-1.5,0.4s-1,0.7-1.5,1.1V0h-2.2v-13.1H71v1.5c0.6-0.6,1.2-1,1.7-1.3s1.2-0.5,1.9-0.5c0.8,0,1.5,0.2,2.1,0.5
				s1.1,0.9,1.4,1.7c0.7-0.8,1.3-1.3,1.9-1.7s1.3-0.6,2.1-0.6c0.6,0,1.1,0.1,1.5,0.3s0.9,0.5,1.2,0.8c0.3,0.4,0.6,0.9,0.8,1.5
				s0.3,1.3,0.3,2.3V0H83.6z M97.5-6.6h-8v-1.8c0.6-0.5,1.2-0.9,1.7-1.3s1-0.8,1.3-1.1c0.8-0.8,1.4-1.4,1.6-1.9s0.4-1,0.4-1.6
				c0-0.5-0.2-1-0.5-1.3s-0.8-0.4-1.4-0.4c-0.5,0-1.1,0.1-1.6,0.4s-1,0.5-1.3,0.7h-0.2v-2.1c0.5-0.2,1-0.4,1.6-0.5s1.2-0.2,1.8-0.2
				c1.2,0,2.2,0.3,2.8,0.9s1,1.4,1,2.4c0,0.7-0.2,1.3-0.5,1.9s-0.9,1.3-1.7,2.1c-0.4,0.4-0.9,0.7-1.4,1.1s-1,0.8-1.4,1.1h5.8V-6.6z"
				/>
		</g>
	</g>
	<g transform="matrix(1, 0, 0, 1, 1968.804931640625, 720.2389965057373)" class="st0">
		<g class="st1">
			<path d="M11.2,0H2.7v-1.8h3.2v-11.7H2.7v-1.6c1.2,0,2.1-0.2,2.6-0.5s0.9-1,1-1.9h1.8v15.7h3.1V0z M25.6-6h-2.1v6h-2.3v-6h-7.7
				v-2.5l7.8-9h2.2v9.6h2.1V-6z M21.3-7.9v-6.8l-5.9,6.8H21.3z M32.1-3.3l-3.3,7.7h-1.7l2.1-7.7H32.1z M45.7-14.8L38.2,0h-2.5
				l8-15.4h-9v-2h11.1V-14.8z M70.5,0v-7.6c0-0.6,0-1.1-0.1-1.7s-0.1-0.9-0.3-1.2c-0.2-0.3-0.4-0.5-0.7-0.7s-0.7-0.2-1.2-0.2
				c-0.4,0-0.9,0.1-1.5,0.4s-1.1,0.7-1.6,1.2c0,0.1,0,0.3,0,0.5s0,0.4,0,0.7V0h-2.2v-7.6c0-0.6,0-1.1-0.1-1.7s-0.1-0.9-0.3-1.2
				c-0.2-0.3-0.4-0.5-0.7-0.7s-0.7-0.2-1.2-0.2c-0.5,0-1,0.1-1.5,0.4s-1,0.7-1.5,1.1V0h-2.2v-13.1h2.2v1.5c0.6-0.6,1.2-1,1.7-1.3
				s1.2-0.5,1.9-0.5c0.8,0,1.5,0.2,2.1,0.5c0.6,0.3,1.1,0.9,1.4,1.7c0.7-0.8,1.3-1.3,1.9-1.7s1.3-0.6,2.1-0.6c0.6,0,1.1,0.1,1.5,0.3
				s0.9,0.5,1.2,0.8c0.3,0.4,0.6,0.9,0.8,1.5s0.3,1.3,0.3,2.3V0H70.5z M84.4-6.6h-8v-1.8c0.6-0.5,1.2-0.9,1.7-1.3s1-0.8,1.3-1.1
				c0.8-0.8,1.4-1.4,1.6-1.9s0.4-1,0.4-1.6c0-0.5-0.2-1-0.5-1.3s-0.8-0.4-1.4-0.4c-0.5,0-1.1,0.1-1.6,0.4s-1,0.5-1.3,0.7h-0.2v-2.1
				c0.5-0.2,1-0.4,1.6-0.5s1.2-0.2,1.8-0.2c1.2,0,2.2,0.3,2.8,0.9s1,1.4,1,2.4c0,0.7-0.2,1.3-0.5,1.9s-0.9,1.3-1.7,2.1
				c-0.4,0.4-0.9,0.7-1.4,1.1s-1,0.8-1.4,1.1h5.8V-6.6z"/>
		</g>
	</g>
	<g transform="matrix(1, 0, 0, 1, 1392.1923828125, 448.2389965057373)" class="st0">
		<g class="st1">
			<path d="M11.8-5.6c0,0.8-0.1,1.6-0.4,2.3s-0.6,1.3-1.1,1.9S9.2-0.4,8.5-0.1S6.9,0.4,6,0.4c-0.8,0-1.7-0.1-2.5-0.3S2-0.3,1.5-0.6
				v-2.5h0.2C1.8-3,2.1-2.8,2.4-2.7s0.7,0.3,1.1,0.5C4-2,4.4-1.9,4.8-1.8s0.8,0.1,1.3,0.1c0.5,0,0.9-0.1,1.4-0.3s0.8-0.4,1.1-0.8
				c0.3-0.3,0.5-0.7,0.7-1.2c0.2-0.5,0.2-1,0.2-1.6S9.4-6.7,9.2-7.1s-0.4-0.7-0.7-1C8.2-8.4,7.7-8.6,7.3-8.7s-1-0.2-1.6-0.2
				c-0.6,0-1.3,0-1.9,0.1S2.6-8.6,2.2-8.5v-9h9.6v2H4.4v4.6c0.3,0,0.6-0.1,0.8-0.1s0.5,0,0.8,0c0.9,0,1.6,0.1,2.3,0.2
				s1.2,0.4,1.8,0.9c0.6,0.4,1,1,1.3,1.6S11.8-6.6,11.8-5.6z M25.6-6h-2.1v6h-2.3v-6h-7.7v-2.5l7.8-9h2.2v9.6h2.1V-6z M21.3-7.9
				v-6.8l-5.9,6.8H21.3z M32.1-3.3l-3.3,7.7h-1.7l2.1-7.7H32.1z M46-6h-2.1v6h-2.3v-6h-7.7v-2.5l7.8-9h2.2v9.6H46V-6z M41.7-7.9
				v-6.8l-5.9,6.8H41.7z M70.5,0v-7.6c0-0.6,0-1.1-0.1-1.7s-0.1-0.9-0.3-1.2c-0.2-0.3-0.4-0.5-0.7-0.7s-0.7-0.2-1.2-0.2
				c-0.4,0-0.9,0.1-1.5,0.4s-1.1,0.7-1.6,1.2c0,0.1,0,0.3,0,0.5s0,0.4,0,0.7V0h-2.2v-7.6c0-0.6,0-1.1-0.1-1.7s-0.1-0.9-0.3-1.2
				c-0.2-0.3-0.4-0.5-0.7-0.7s-0.7-0.2-1.2-0.2c-0.5,0-1,0.1-1.5,0.4s-1,0.7-1.5,1.1V0h-2.2v-13.1h2.2v1.5c0.6-0.6,1.2-1,1.7-1.3
				s1.2-0.5,1.9-0.5c0.8,0,1.5,0.2,2.1,0.5c0.6,0.3,1.1,0.9,1.4,1.7c0.7-0.8,1.3-1.3,1.9-1.7s1.3-0.6,2.1-0.6c0.6,0,1.1,0.1,1.5,0.3
				s0.9,0.5,1.2,0.8c0.3,0.4,0.6,0.9,0.8,1.5s0.3,1.3,0.3,2.3V0H70.5z M84.4-6.6h-8v-1.8c0.6-0.5,1.2-0.9,1.7-1.3s1-0.8,1.3-1.1
				c0.8-0.8,1.4-1.4,1.6-1.9s0.4-1,0.4-1.6c0-0.5-0.2-1-0.5-1.3s-0.8-0.4-1.4-0.4c-0.5,0-1.1,0.1-1.6,0.4s-1,0.5-1.3,0.7h-0.2v-2.1
				c0.5-0.2,1-0.4,1.6-0.5s1.2-0.2,1.8-0.2c1.2,0,2.2,0.3,2.8,0.9s1,1.4,1,2.4c0,0.7-0.2,1.3-0.5,1.9s-0.9,1.3-1.7,2.1
				c-0.4,0.4-0.9,0.7-1.4,1.1s-1,0.8-1.4,1.1h5.8V-6.6z"/>
		</g>
	</g>
	<g transform="matrix(1, 0, 0, 1, 1962.254150390625, 295.2389965057373)" class="st0">
		<g class="st1">
			<path d="M12,0H1.3v-2.5c0.8-0.7,1.5-1.4,2.2-2.1s1.4-1.4,2-2.1c1.3-1.5,2.2-2.6,2.7-3.5s0.7-1.8,0.7-2.7c0-0.5-0.1-0.9-0.2-1.3
				s-0.4-0.7-0.6-0.9c-0.3-0.2-0.6-0.4-0.9-0.5s-0.8-0.2-1.2-0.2c-0.4,0-0.8,0.1-1.3,0.2s-0.8,0.2-1.2,0.4c-0.3,0.1-0.6,0.3-0.9,0.5
				S2-14.4,1.8-14.3H1.6v-2.5c0.5-0.2,1.2-0.5,2-0.7s1.7-0.3,2.5-0.3c1.6,0,2.9,0.4,3.8,1.3c0.9,0.9,1.4,2,1.4,3.5
				c0,0.7-0.1,1.3-0.2,1.9s-0.4,1.1-0.7,1.6c-0.3,0.5-0.6,1-1,1.5S8.5-7,8.1-6.5C7.4-5.7,6.5-4.9,5.6-4S4-2.5,3.5-2H12V0z M25.4-5.7
				c0,0.9-0.1,1.7-0.4,2.5s-0.7,1.4-1.2,1.9c-0.5,0.5-1.1,1-1.8,1.2s-1.4,0.4-2.1,0.4c-0.8,0-1.5-0.1-2.2-0.4S16.5-0.7,16-1.2
				c-0.6-0.6-1.1-1.5-1.4-2.5s-0.5-2.4-0.5-3.9c0-1.5,0.2-2.9,0.5-4.1s0.8-2.3,1.4-3.2c0.6-0.9,1.5-1.6,2.5-2.1s2.2-0.7,3.5-0.7
				c0.4,0,0.7,0,1.1,0.1s0.6,0.1,0.9,0.2v2.2h-0.1c-0.2-0.1-0.5-0.2-0.9-0.3s-0.8-0.1-1.3-0.1c-1.5,0-2.6,0.5-3.5,1.5
				s-1.4,2.4-1.6,4.4c0.6-0.4,1.1-0.7,1.7-0.9s1.2-0.3,1.9-0.3c0.7,0,1.3,0.1,1.8,0.2s1,0.4,1.6,0.8c0.6,0.5,1.1,1.1,1.4,1.8
				S25.4-6.7,25.4-5.7z M23-5.6c0-0.7-0.1-1.3-0.3-1.8s-0.5-0.9-0.9-1.2c-0.3-0.3-0.7-0.4-1-0.5S20-9.2,19.6-9.2
				c-0.5,0-1.1,0.1-1.6,0.2s-1,0.4-1.5,0.7c0,0.2,0,0.3,0,0.5s0,0.4,0,0.6c0,1.2,0.1,2.2,0.4,2.9s0.5,1.3,0.9,1.7
				c0.3,0.4,0.7,0.6,1,0.8s0.7,0.2,1.1,0.2c0.9,0,1.7-0.3,2.3-1S23-4.2,23-5.6z M32.1-3.3l-3.3,7.7h-1.7l2.1-7.7H32.1z M46-6h-2.1v6
				h-2.3v-6h-7.7v-2.5l7.8-9h2.2v9.6H46V-6z M41.7-7.9v-6.8l-5.9,6.8H41.7z M58.6,0H47.9v-2.5c0.8-0.7,1.5-1.4,2.2-2.1
				s1.4-1.4,2-2.1c1.3-1.5,2.2-2.6,2.7-3.5s0.7-1.8,0.7-2.7c0-0.5-0.1-0.9-0.2-1.3s-0.4-0.7-0.6-0.9c-0.3-0.2-0.6-0.4-0.9-0.5
				s-0.8-0.2-1.2-0.2c-0.4,0-0.8,0.1-1.3,0.2s-0.8,0.2-1.2,0.4c-0.3,0.1-0.6,0.3-0.9,0.5s-0.6,0.3-0.7,0.5h-0.1v-2.5
				c0.5-0.2,1.2-0.5,2-0.7s1.7-0.3,2.5-0.3c1.6,0,2.9,0.4,3.8,1.3c0.9,0.9,1.4,2,1.4,3.5c0,0.7-0.1,1.3-0.2,1.9S57.3-10,57-9.5
				c-0.3,0.5-0.6,1-1,1.5s-0.8,1-1.3,1.5c-0.7,0.8-1.6,1.6-2.5,2.5S50.6-2.5,50-2h8.6V0z M83.6,0v-7.6c0-0.6,0-1.1-0.1-1.7
				s-0.1-0.9-0.3-1.2c-0.2-0.3-0.4-0.5-0.7-0.7s-0.7-0.2-1.2-0.2c-0.4,0-0.9,0.1-1.5,0.4s-1.1,0.7-1.6,1.2c0,0.1,0,0.3,0,0.5
				s0,0.4,0,0.7V0h-2.2v-7.6c0-0.6,0-1.1-0.1-1.7s-0.1-0.9-0.3-1.2c-0.2-0.3-0.4-0.5-0.7-0.7s-0.7-0.2-1.2-0.2c-0.5,0-1,0.1-1.5,0.4
				s-1,0.7-1.5,1.1V0h-2.2v-13.1H71v1.5c0.6-0.6,1.2-1,1.7-1.3s1.2-0.5,1.9-0.5c0.8,0,1.5,0.2,2.1,0.5s1.1,0.9,1.4,1.7
				c0.7-0.8,1.3-1.3,1.9-1.7s1.3-0.6,2.1-0.6c0.6,0,1.1,0.1,1.5,0.3s0.9,0.5,1.2,0.8c0.3,0.4,0.6,0.9,0.8,1.5s0.3,1.3,0.3,2.3V0
				H83.6z M97.5-6.6h-8v-1.8c0.6-0.5,1.2-0.9,1.7-1.3s1-0.8,1.3-1.1c0.8-0.8,1.4-1.4,1.6-1.9s0.4-1,0.4-1.6c0-0.5-0.2-1-0.5-1.3
				s-0.8-0.4-1.4-0.4c-0.5,0-1.1,0.1-1.6,0.4s-1,0.5-1.3,0.7h-0.2v-2.1c0.5-0.2,1-0.4,1.6-0.5s1.2-0.2,1.8-0.2
				c1.2,0,2.2,0.3,2.8,0.9s1,1.4,1,2.4c0,0.7-0.2,1.3-0.5,1.9s-0.9,1.3-1.7,2.1c-0.4,0.4-0.9,0.7-1.4,1.1s-1,0.8-1.4,1.1h5.8V-6.6z"
				/>
		</g>
	</g>
</g>
</svg>
